<svg width="1920" height="1080" viewBox="0 0 1920 1080" fill="none" xmlns="http://www.w3.org/2000/svg">
<path d="M765.162 530.584C758.737 529.443 748.067 530.196 742.361 530.961C736.259 531.778 731.337 535.514 726.19 539.508C720.974 543.556 716.113 546.926 712.49 552.244C708.436 558.194 704.313 565.528 701.643 578.446C695.782 606.798 707.326 619.575 709.426 624.334C711.935 630.022 716.821 635.917 721.591 640.316C726.138 644.51 732.044 647.74 743.222 650.97C765.162 657.308 776.732 651.97 787.484 647.51C794.455 644.62 805.161 634.481 808.984 628.01C813.457 620.441 816.868 604.51 816.984 587.51C817.056 576.998 808.163 558.384 805.304 553.425C802.873 549.208 796.773 543.936 791.427 540.672C786.828 537.865 782.303 535.537 777.732 534.013C775.456 533.255 773.162 532.866 770.885 532.678C769.738 532.49 768.608 532.113 767.444 531.725" stroke="white" stroke-width="8" stroke-linecap="round"/>
<path d="M757.565 657.01C757.313 660.501 756.547 666.369 756.165 678.948C755.818 690.357 756.035 712.012 756.287 725.287C756.749 749.583 758.071 757.315 759.601 773.677C760.947 788.067 762.158 804.539 763.045 811.783C764.454 818.629 764.706 822.143 765.215 824.479C765.472 825.656 765.724 826.816 765.984 828.01" stroke="white" stroke-width="8" stroke-linecap="round"/>
<path d="M765.984 828.01C766.927 829.872 768.337 835.456 770.818 841.396C774.357 849.87 780.598 865.65 783.695 873.049C785.64 877.695 790.038 889.035 793.5 897.056C795.1 900.762 801.987 915.818 803.649 922.361C806.498 953.03 807.558 996.978 808.504 1005.08C809.481 1013.44 809.684 1024.72 810.513 1032.96C810.634 1037.76 810.634 1046.4 810.984 1051.01" stroke="white" stroke-width="8" stroke-linecap="round"/>
<path d="M765.71 830.01C765.71 830.812 765.71 836.634 765.89 846.634C766.038 854.851 766.801 860.75 766.891 864.891C766.968 868.442 767.526 877.695 767.979 890.233C768.363 900.878 769.343 905.685 770.071 910.639C770.797 915.577 770.979 919.248 770.984 929.336C770.987 933.836 769.714 936.855 768.808 940.48C767.318 946.445 766.261 952.028 764.183 959.769C762.594 965.69 760.125 975.725 758.827 981.386C756.485 991.601 754.987 1000.18 752.721 1009.28C750.376 1018.7 750.079 1022.86 749.35 1025.5C748.586 1028.27 748.442 1031.97 747.714 1035.72C747.097 1038.89 746.261 1041.68 745.985 1046.34C745.895 1047.36 745.715 1047.96 745.533 1048.57C745.35 1049.18 745.17 1049.78 744.984 1051.01" stroke="white" stroke-width="8" stroke-linecap="round"/>
<path d="M757.984 657.01C755.258 659.513 753.618 661.187 749.463 666.367C745.733 671.015 739.176 680.239 735.558 685.24C730.758 691.877 729.941 694.625 727.665 697.657C725.986 699.894 725.023 702.778 722.657 705.913C721.533 707.402 721.012 709.055 720.376 710.306C719.78 711.477 719.733 713.439 721.176 719.666C724.434 733.729 729.198 743.747 730.651 747.08C734.197 755.212 736.662 762.956 738.851 767.785C741.227 773.029 742.312 776.15 744.132 781.051C746.821 788.294 748.323 790.574 750.236 794.647C751.788 797.479 753.602 799.981 755.247 802.493C755.613 803.123 755.973 803.744 756.345 805.01" stroke="white" stroke-width="8" stroke-linecap="round"/>
<path d="M760.633 660.768C761.364 661.312 769.351 670.761 776.283 677.883C781.573 683.318 783.159 686.406 785.27 688.794C785.732 689.347 786.095 689.891 788.186 692.076C790.278 694.261 794.087 698.07 798.012 702.545" stroke="white" stroke-width="8" stroke-linecap="round"/>
<path d="M800.211 702.545C800.574 701.269 802.036 698.708 803.413 695.959C804.907 692.977 806.433 688.824 807.81 685.424C809.205 681.981 809.919 678.556 811.018 675.621C812.065 672.824 812.304 668.673 813.673 661.527C814.337 658.058 814.503 655.469 815.415 649.618C816.492 642.713 816.515 639.341 816.792 632.03C816.883 630.359 817.065 629.633 817.158 628.081C817.251 626.528 817.251 624.17 817.251 621.74" stroke="white" stroke-width="8" stroke-linecap="round"/>
<path d="M851.352 254.753C852.172 257.637 853.837 264.248 855.484 271.294C856.617 276.144 859.628 282.056 861.896 290.313C864.676 300.437 870.377 321.698 875.137 347.366C878.71 366.636 881.574 380.614 883.861 393.681C885.867 405.148 887.788 414.192 889.664 425.376C890.352 429.475 893.156 445.98 898.537 469.579C901.457 480.875 902.302 484.641 902.507 487.12C902.712 488.369 903.122 489.599 903.545 490.866" stroke="white" stroke-width="8" stroke-linecap="round"/>
<path d="M856 385.562C858.473 385.562 864.252 383.922 873.155 381.635C881.799 379.415 887.465 377.286 900.613 373.172C912.036 369.598 933.445 364.138 945.456 361.18C963.528 356.73 980.966 352.456 993.704 350.356C1003.32 348.771 1013.8 344.975 1020.84 343.316C1027.49 341.749 1049.69 335.904 1062.47 333.164C1069.31 331.7 1075.93 330.063 1082.97 328.404C1089.24 326.927 1098.28 325.092 1106.58 322.197C1117.98 318.221 1127.28 316.393 1133.92 314.939C1138.86 314.728 1143.46 313.908 1146.97 312.665C1148.84 312.243 1150.89 312.243 1155.49 311" stroke="white" stroke-width="8" stroke-linecap="round"/>
<path d="M882.367 376.409C882.872 374.894 883.413 360.412 885.5 351C887.468 342.121 887.829 334.595 891.5 324.5C895.5 313.5 895.5 313.319 899 305.5C902.5 297.681 905 295.5 909 292C913 288.5 918.473 285.721 921.5 285C932 282.5 928.388 283.202 935 282.5C938.442 282.135 944.662 282.683 948 283C951.338 283.317 956.091 284.536 961.5 286.5C966.909 288.464 972 292 976.5 295C981.306 298.204 984.763 300.73 988.5 304C992.5 307.5 986.749 302.153 998.5 313C1005 319 1003.96 318.463 1006.52 321.598C1009.09 324.733 1011.49 328.141 1013.16 330.781C1014.84 333.42 1015.72 335.187 1019.21 340.958C1022.69 346.728 1028.75 356.448 1033.45 363.475C1038.15 370.502 1041.31 374.542 1043.75 377.57C1047.77 382.546 1050.29 385.578 1052.51 388.372C1055.77 392.478 1059.85 395.524 1062.71 397.56C1065.09 399.253 1067.25 400.374 1070.67 402.088C1077.1 405.307 1083.31 406.625 1087.75 407.261C1094.41 408.216 1099.51 407.65 1103.25 406.575C1110.59 404.462 1116.46 401.154 1119.45 399.247C1122.47 397.319 1125.38 394.024 1128.31 390.398C1130.77 387.358 1137.9 376.739 1140.5 367C1142.75 358.564 1144.5 352 1146 340.958C1147.5 329.883 1149.5 319.5 1149.5 316" stroke="white" stroke-width="8" stroke-linecap="round"/>
<path d="M1108.2 552.922C1116.1 544.379 1118.05 542.531 1118.36 543.092C1123.85 552.922 1132.8 571.268 1137.44 581.447C1139.22 585.351 1147.14 601.897 1151.02 612.774C1157.82 631.807 1170.72 659.432 1175.81 671.667C1184.29 692.06 1201.21 724.8 1204.01 731.374C1206.78 737.88 1228.47 772.79 1224.52 778.17C1223.09 780.116 1208.77 775.847 1204.01 774.5C1198.81 773.028 1180.32 769.005 1174 767.5C1163.14 764.912 1161 764 1146 760C1124.04 754.143 1102.09 749.444 1082.13 745.5C1036.09 736.402 1055.5 739.5 1020 734C984.5 728.5 971.1 727.766 965.5 727.5L965.455 727.498C955.098 727.006 943.864 726.473 944.001 723.41C944.016 723.084 945.063 722.859 946.622 721.442C953.757 714.955 958.32 711.765 968.052 701.781C974.232 695.441 980.955 689.207 997.81 671.667C1010.37 658.596 1033.19 634.472 1046.76 619.759C1060.32 605.045 1064.5 599.899 1068.08 596C1071.66 592.101 1074.55 589.528 1082.13 581.447C1089.7 573.367 1101.54 560.131 1108.2 552.922Z" stroke="white" stroke-width="8" stroke-linecap="round"/>
</svg>
