<svg width="1920" height="1080" viewBox="0 0 1920 1080" fill="none" xmlns="http://www.w3.org/2000/svg">
<path d="M783.084 327.374C780.264 326.595 773.045 327.623 768.769 329.831C762.549 333.044 757.075 335.97 753.062 339.615C744.473 347.419 741.256 362.142 740.613 365.655C739.793 370.137 739.707 378.468 741.632 389.379C743.741 401.338 748.212 404.98 751.055 409.396C754.837 415.272 758.793 417.193 762.158 419.401C766.658 422.353 774.021 423.175 780.21 423.821C795.898 425.46 804.757 419.81 808.242 417.863C814.963 414.109 818.276 410.587 823.062 405.115C825.864 401.913 830.07 394.557 830.07 385.575C830.07 372.615 829.98 365.684 828.562 360.115C825.888 349.607 819.665 343.774 816.562 339.615C813.483 335.487 809.451 332.857 805.558 330.493C802.456 329.196 798.854 328.153 793.444 327.506C790.621 327.374 785.764 327.374 780.76 327.374" stroke="#FCF1C9" stroke-width="8" stroke-linecap="round"/>
<path d="M786.649 424.115C786.649 425.597 786.367 428.578 785.797 432.395C785.043 437.45 785.087 443.488 784.871 446.567C784.488 452.047 784.374 458.778 784.161 465.716C783.982 471.542 784.088 482.066 784.159 487.854C784.238 494.386 784.515 499.201 784.586 505.815C784.623 509.301 784.942 512.456 785.012 516.365C785.063 519.18 785.369 526.398 785.439 535.995C785.487 542.509 786.222 550.642 786.576 556.458C786.804 560.206 787.784 565.026 788.991 570.714C789.209 571.939 789.209 572.677 789.35 573.334C789.491 573.991 789.772 574.545 790.062 575.115" stroke="#FCF1C9" stroke-width="8" stroke-linecap="round"/>
<path d="M791.062 576.115C791.512 578.38 792.874 581.558 794.46 585.421C795.814 588.719 797.857 592.688 799.342 597.694C799.965 599.796 803.515 609.444 808.053 623.306C810.743 631.522 811.937 635.653 814.089 641.679C815.579 645.852 817.834 649.757 819.539 653.054C820.929 655.742 821.02 667.175 821.132 682.854C821.174 688.631 821.469 689.981 821.585 699.791C821.701 709.602 821.701 727.831 821.813 737.56C821.925 747.289 822.15 747.964 822.266 748.987C822.382 750.01 822.382 751.36 823.062 754.115" stroke="#FCF1C9" stroke-width="8" stroke-linecap="round"/>
<path d="M789.739 573.398C789.739 573.615 789.739 573.832 789.739 580.783C789.739 587.734 789.739 601.413 789.848 609.437C789.983 619.419 790.397 626.205 790.072 635.396C789.775 643.771 787.772 649.7 786.46 654.615C784.655 661.371 783.824 667.682 782.295 674.445C781.263 679.006 780.331 685.986 779.446 693.147C777.679 707.448 776.804 717.896 776.146 723.262C775.054 733.884 773.291 746.418 773.182 749.704C773.074 751.037 772.857 751.688 772.633 753.675" stroke="#FCF1C9" stroke-width="8" stroke-linecap="round"/>
<path d="M739.905 358.6C739.257 360.538 737.759 366.333 734.421 378.914C732.294 386.933 730.441 398.554 729.34 405.36C727.238 418.342 726.941 426.634 726.403 431.823C725.665 438.938 725.645 441.555 725.107 444.686C724.905 445.86 724.997 447.583 725.318 448.358C726.349 450.849 734.46 445.911 745.7 441.367C751.744 438.924 757.821 436.824 761.389 435.524C765.392 434.066 768.192 432.286 771.115 431.094C774.48 429.721 777.915 428.825 780.731 428.067C781.383 427.956 782.024 427.956 782.676 427.849C783.327 427.742 783.969 427.529 785.278 427.308" stroke="#FCF1C9" stroke-width="8" stroke-linecap="round"/>
<path d="M789.086 427.543C790.07 427.871 798.94 430.828 812.431 435.462C819.311 437.825 825.316 440.612 832.844 443.261C839.75 445.69 841.918 445.76 843.486 446.257C844.37 446.537 845.546 446.426 846.219 444.13C846.892 441.835 847.056 437.243 846.239 427.827C845.421 418.41 843.618 404.308 842.524 396.633C841.021 386.077 839.94 382.831 838.206 376.224C836.585 370.047 834.643 366.93 833.811 364.939C833.48 363.948 833.147 362.949 832.735 361.958C832.487 361.458 832.159 360.967 831.821 360.46" stroke="#FCF1C9" stroke-width="8" stroke-linecap="round"/>
<path d="M922.867 329.356C923.414 329.356 923.961 329.356 962.401 328.946C1000.84 328.535 1077.16 327.715 1117.02 327.155C1156.88 326.596 1157.97 326.322 1162.23 326.181C1182.58 325.767 1186.71 326.212 1190.16 326.075" stroke="#FCF1C9" stroke-width="8" stroke-linecap="round"/>
<path d="M923.213 329.615C923.213 330.22 923.918 330.756 923.213 366.523C922.508 402.291 923.918 460.115 923.911 532.615" stroke="#FCF1C9" stroke-width="8" stroke-linecap="round"/>
<path d="M924.984 533.234C925.191 533.234 925.398 533.234 942.031 532.718C958.664 532.201 991.707 531.533 1009.47 531.533C1032 531.533 1057.55 531.743 1071 531.533C1084.45 531.323 1104.69 531.743 1118.5 531.533C1132.31 531.323 1131.5 531.533 1150.5 532.533C1161.77 533.126 1178.5 533.234 1194 533.234" stroke="#FCF1C9" stroke-width="8" stroke-linecap="round"/>
<path d="M1191.44 328.049C1191.26 328.415 1191.07 328.781 1191.07 344.265C1191.07 359.748 1191.25 390.338 1191.44 406.921C1191.62 423.503 1191.81 425.152 1191.9 427.558C1192.31 437.93 1192.55 444.579 1193.01 450.973C1193.19 453.466 1193.29 456.069 1193.57 464.517C1193.79 471.496 1193.66 483.955 1193.75 491.104C1193.89 502.153 1194.58 505.836 1194.86 509.541C1194.95 510.471 1195.14 511.386 1195.23 515.064C1195.32 518.741 1195.32 525.152 1195.32 531.757" stroke="#FCF1C9" stroke-width="8" stroke-linecap="round"/>
<path d="M1068.58 387.896C1068.18 388.288 1066.71 391.222 1063.2 397.327C1060.42 402.153 1055.32 410.31 1048.69 420.157C1042.07 430.004 1034 441.247 1029.58 447.502C1023.26 456.448 1021.81 458.84 1022.08 459.574C1022.6 459.91 1023.92 460.175 1034.72 460.245C1045.52 460.315 1065.76 460.183 1086.61 460.047" stroke="#FCF1C9" stroke-width="8" stroke-linecap="round"/>
<path d="M1054 415.115C1054.31 415.438 1057.07 418.832 1061.58 424.57C1063.53 427.049 1064.65 428.775 1066.08 430.657C1067.51 432.539 1069.2 434.556 1073.74 440.478C1078.28 446.399 1085.63 456.164 1089.53 461.396C1094.25 467.729 1094.98 469.163 1095.59 470.093C1099.59 476.131 1100.38 477.136 1101 478.115" stroke="#FCF1C9" stroke-width="8" stroke-linecap="round"/>
<path d="M995 460.594C995.081 460.594 995.163 460.594 998.255 460.594C1001.35 460.594 1007.45 460.594 1010.87 460.553C1014.87 460.506 1015.95 460.348 1016.93 460.307C1017.43 460.286 1017.91 460.185 1024.26 460.143C1030.62 460.101 1042.82 460.101 1049.59 460.182" stroke="#FCF1C9" stroke-width="8" stroke-linecap="round"/>
<path d="M1068 354.115C1066.78 355.707 1064.68 358.658 1060.7 364.161C1057.65 368.387 1052.77 375.759 1049.56 380.379C1046.35 384.999 1045.03 386.706 1043.52 388.986C1042.02 391.267 1040.37 394.07 1039.3 395.758C1038.23 397.446 1037.79 397.934 1032.45 405.437C1027.1 412.94 1016.87 427.444 1011 435.951C1005.12 444.459 1003.91 446.531 1002.74 448.391C999.003 454.077 997.673 456.289 996.393 457.955C996.113 458.387 995.893 458.874 995 460.115" stroke="#FCF1C9" stroke-width="8" stroke-linecap="round"/>
<path d="M1069.48 388.381C1069.69 388.805 1070.12 389.342 1075.74 397.622C1081.12 405.537 1091.35 421.18 1096.91 429.745C1102.48 438.31 1103.01 439.371 1103.65 440.395C1104.3 441.419 1105.04 442.374 1109.14 448.436C1113.23 454.498 1120.66 465.638 1124.54 471.536C1129.41 478.944 1131.62 482.035 1133.13 484.394C1134.35 486.303 1136.01 489.526 1137.58 491.684C1138.91 494.039 1140.63 496.824 1141.7 498.063" stroke="#FCF1C9" stroke-width="8" stroke-linecap="round"/>
<path d="M1068 354.115C1068.52 354.435 1069.15 355.723 1069.93 357.015C1070.37 357.756 1071.85 359.479 1074.5 363.176C1078.2 368.329 1081.45 372.817 1083.17 375.557C1084.38 377.487 1085.74 378.849 1087.71 381.791C1091.39 387.289 1094.5 391.116 1095.7 392.455C1097.3 394.244 1098.26 395.85 1099.25 397.348C1101.17 400.273 1102.96 402.305 1105.55 406.039C1107.87 409.391 1112.47 415.524 1115.02 419.079C1117.57 422.634 1117.98 423.379 1119.33 425.307C1122.88 430.379 1125.92 434.571 1127.37 436.824C1129.06 439.428 1130.82 441.671 1132.64 444.669C1135.64 449.626 1138.44 452.757 1139.17 453.883C1139.57 454.494 1140.11 455.116 1142.49 458.534C1144.88 461.951 1152.71 474.22 1155 477.615" stroke="#FCF1C9" stroke-width="8" stroke-linecap="round"/>
<path d="M959 480.115C962.738 480.115 970.536 479.895 974.643 479.672C979.247 479.422 984.853 479.932 987.72 479.764C988.761 479.703 993.354 479.485 1001.92 479.595C1006.65 479.656 1016.2 479.115 1020.83 479.17C1022.62 479.192 1032.9 479.335 1046.44 479.392C1059.97 479.449 1071.4 479.449 1085.16 479.394C1098.91 479.339 1099.25 479.229 1099.82 479.172C1100.39 479.115 1101.18 479.115 1102 479.115" stroke="#FCF1C9" stroke-width="8" stroke-linecap="round"/>
<path d="M1040 354.115C1039.76 354.204 1038.82 355.854 1035.66 360.901C1032.9 365.316 1030.9 368.821 1029.48 371.115C1028.81 372.199 1028.37 373.227 1024.29 380.072C1020.2 386.917 1012.52 399.575 1008.21 406.505C1003.9 413.436 1003.19 414.255 1001.85 416.089C1000.51 417.923 998.549 420.746 997.186 422.61C995.824 424.474 995.119 425.293 992.599 428.857C990.08 432.421 985.769 438.704 983.273 442.26C980.29 446.511 979.037 448.202 977.891 450.086C976.008 453.179 973.73 456.299 971.754 458.919C970.048 461.18 968.195 464.108 966.801 466.373C965.753 468.076 962.979 472.734 961.217 475.528C960.503 476.661 959.634 478.01 959 479.115" stroke="#FCF1C9" stroke-width="8" stroke-linecap="round"/>
<path d="M1040 354.115C1040.24 354.115 1040.48 354.115 1043.14 354.115C1045.79 354.115 1050.85 354.115 1053.94 354.115C1059.39 354.115 1060.61 354.115 1062.3 354.115C1063.6 354.115 1065.76 354.115 1068 354.115" stroke="#FCF1C9" stroke-width="8" stroke-linecap="round"/>
<path d="M1154.69 478.264C1153.75 479.441 1152.32 481.806 1150.83 484.175C1149.99 485.495 1148.47 488.19 1147.51 489.902C1146.54 491.628 1145.53 493.65 1144.79 494.795C1144.11 495.783 1143.64 496.494 1143.32 496.966C1143.17 497.204 1143.01 497.439 1142.38 497.917" stroke="#FCF1C9" stroke-width="8" stroke-linecap="round"/>
<path d="M974 497.689C977.484 497.427 983.519 497.404 986.904 497.295C990.288 497.187 990.853 497.116 1006.29 497.115C1021.74 497.114 1052.04 497.185 1068.07 497.257C1084.1 497.329 1084.95 497.399 1088.3 497.471C1091.66 497.543 1097.49 497.614 1100.78 497.686C1104.07 497.757 1104.63 497.828 1110.99 497.9C1117.35 497.972 1129.49 498.042 1142 498.115" stroke="#FCF1C9" stroke-width="8" stroke-linecap="round"/>
<path d="M959 480.115C961.122 482.666 964.098 485.648 966.339 488.35C967.767 490.071 969.308 491.901 970.3 493.182C971.498 494.463 972.332 495.125 972.747 495.691C972.957 495.977 973.163 496.258 974 497.115" stroke="#FCF1C9" stroke-width="8" stroke-linecap="round"/>
</svg>
