<svg width="1920" height="1080" viewBox="0 0 1920 1080" fill="none" xmlns="http://www.w3.org/2000/svg">
<path d="M1017.6 347.063C1021.97 343.642 1033.08 340 1038.28 340C1047.2 340 1055.87 341.224 1063.95 344.813C1076.67 350.468 1082.4 363.265 1085.77 374.897C1089.29 387.041 1090 407.054 1082.4 417.416C1078.05 423.347 1068.19 432.791 1061.54 435.467C1052.39 439.147 1050.49 439.432 1040.54 438.595L1040.39 438.583C1029.96 437.706 1022.95 437.116 1015.01 430.653C1008.02 424.965 1005.86 419.586 1001.77 411.801C998.47 405.499 995.678 389.353 997.321 382.395C998.945 375.516 1000.62 369.052 1003.84 362.714C1007.08 356.352 1012.05 351.397 1017.6 347.063Z" stroke="white" stroke-width="8" stroke-linecap="round"/>
<path d="M1008.99 356.045C1008.99 360.425 1009.28 368.112 1011.29 371.926C1013.69 376.461 1017.04 380.37 1021.48 382.759C1024.61 384.444 1028.94 385.985 1032.53 385.985C1034.62 385.985 1036.72 385.985 1038.81 385.985C1041.45 385.985 1043.82 384.996 1046.39 384.709C1055.19 383.732 1064.02 380.819 1072.73 383.722C1075.6 384.678 1078.33 386.29 1080.41 388.369C1082.83 390.786 1085.98 391.633 1087.13 395.085" stroke="white" stroke-width="8" stroke-linecap="round"/>
<path d="M1012.2 354.636C1012.87 355.355 1013.16 356.393 1013.85 357.114C1015.12 358.456 1016.14 360.037 1017.31 361.449C1018.76 363.208 1020.14 364.896 1021.9 366.358C1023.73 367.879 1026.35 368.943 1028.6 369.707C1032.68 371.095 1036.9 371.771 1041.21 371.771C1043.5 371.771 1045.79 371.771 1048.07 371.771C1050.87 371.771 1053.6 372.229 1056.38 372.402C1058.83 372.556 1061.47 373.443 1063.81 374.157C1065.42 374.65 1067.33 375.085 1068.76 376.004C1069.86 376.708 1071.19 377.286 1072.38 377.85C1073.89 378.576 1075.27 379.564 1076.72 380.328C1079.35 381.706 1081.8 383.872 1083.63 386.223C1084.93 387.901 1085.35 389.5 1086.1 391.384" stroke="white" stroke-width="8" stroke-linecap="round"/>
<path d="M1016.95 353.191C1018.21 353.191 1019.61 351.901 1020.86 351.528C1023.59 350.708 1025.88 350.507 1028.76 350.507C1035.34 350.507 1041.8 350.609 1048.23 351.941C1051.38 352.593 1054.57 353.366 1057.64 354.338C1060.7 355.306 1063.26 356.856 1065.98 358.559C1070.97 361.693 1077.06 364.9 1080.12 370.12C1081.39 372.287 1082.24 375.128 1084.04 376.933" stroke="white" stroke-width="8" stroke-linecap="round"/>
<path d="M1017.36 356.288C1018.91 356.288 1020.46 356.288 1022.02 356.288C1024.9 356.288 1027.72 357.114 1030.6 357.114C1032.38 357.114 1034.19 357.687 1035.95 357.939C1037.6 358.175 1039.44 358.406 1041.03 358.88C1044.21 359.824 1047.62 361.132 1050.9 361.655C1052.34 361.886 1053.73 362.426 1055.14 362.779C1056.49 363.116 1058.09 363.449 1059.3 364.156C1060.44 364.821 1061.75 365.086 1062.89 365.784C1064.61 366.84 1066.65 367.559 1068.47 368.468C1071.56 370.013 1074.96 371.566 1077.44 374.042C1079.21 375.819 1081.41 377.865 1082.76 379.984C1083.55 381.225 1084.59 382.331 1085.49 383.493C1085.98 384.126 1086.89 384.857 1087.14 385.604" stroke="white" stroke-width="8" stroke-linecap="round"/>
<path d="M1088.27 394.924C1088.48 396.659 1090.26 398.163 1091.2 399.515C1092.27 401.059 1093.62 402.46 1095.46 402.921" stroke="white" stroke-width="8" stroke-linecap="round"/>
<path d="M1087.73 405.587C1087.73 406.467 1088.83 408.006 1089.6 408.46C1090.41 408.935 1091.2 408.92 1092 409.318" stroke="white" stroke-width="8" stroke-linecap="round"/>
<path d="M1087.47 412.784C1087.47 415.747 1087.16 418.58 1088.8 421.047" stroke="white" stroke-width="8" stroke-linecap="round"/>
<path d="M1082.13 421.314C1081.69 423.185 1082.13 424.783 1082.13 426.645" stroke="white" stroke-width="8" stroke-linecap="round"/>
<path d="M1076.8 427.978C1076.53 429.343 1075.32 431.086 1076.27 432.509" stroke="white" stroke-width="8" stroke-linecap="round"/>
<path d="M1069.34 433.042C1069.43 434.126 1069.6 435.141 1069.6 436.241" stroke="white" stroke-width="8" stroke-linecap="round"/>
<path d="M1047.96 439C1048.54 441.035 1048.63 468.093 1048.68 471.034C1048.89 486.87 1048.93 503.461 1048.54 519.28C1048.37 526.173 1047.98 532.782 1047.63 539.599C1047.23 547.527 1047.36 555.605 1046.88 563.462C1046.48 569.928 1046.35 576.638 1045.84 583" stroke="white" stroke-width="8" stroke-linecap="round"/>
<path d="M1045.44 582.369C1045.44 584.097 1045.26 587.078 1044.99 595.699C1044.74 603.33 1044.89 617.597 1045.07 626.173C1045.41 642.242 1046.71 649.651 1048.09 659.199C1049.39 668.242 1051.1 681.154 1051.74 689.633C1052.58 700.663 1053.84 709.006 1054.3 714.109C1054.66 717.99 1055.12 721.434 1055.4 724.794C1055.49 725.666 1055.67 726.649 1055.77 728.263C1055.86 729.876 1055.86 732.089 1055.86 734.369" stroke="white" stroke-width="8" stroke-linecap="round"/>
<path d="M1045.86 582.369C1045.86 582.597 1045.69 583.626 1044.72 587.514C1043.98 590.516 1042.5 595.505 1041.22 600.367C1038.75 609.741 1037.63 615.281 1037.42 616.832C1037.05 619.57 1036.45 623.662 1035.73 629.314C1035.27 632.895 1034.92 635.88 1034.67 638.073C1034.36 640.729 1034.16 643.021 1033.9 645.209C1033.64 647.531 1033.39 649.81 1032.97 652.631C1032.69 654.513 1032.46 655.915 1032.29 657.986C1032.06 660.789 1031.7 663.513 1031.57 665.296C1031.53 665.817 1031.45 666.386 1031.4 670.44C1031.36 674.494 1031.36 682.015 1031.32 686.345C1031.23 695.152 1030.94 701.609 1030.81 703.57C1030.58 707.121 1030.43 713.115 1030.3 717.488C1030.17 721.981 1029.75 726.589 1029.54 730.383C1029.24 732.235 1029.07 734.297 1028.86 736.369" stroke="white" stroke-width="8" stroke-linecap="round"/>
<path d="M1046.86 446.51C1045.93 447.72 1044.44 450.948 1042.02 455.41C1039.3 460.403 1034.56 468.566 1030.73 475.56C1024.5 486.932 1019.98 495.138 1018.87 495.348C1016.9 495.717 1016.99 491.102 1015.98 486.572C1013.82 476.985 1011.95 469.423 1011.3 465.489C1009.54 454.786 1008.97 451.592 1008.13 447.036C1007.07 441.264 1006.36 435.591 1005.89 427.895C1005.79 426.253 1005.61 425.451 1005.51 424.436C1005.42 423.421 1005.42 422.217 1004.86 420.369" stroke="white" stroke-width="8" stroke-linecap="round"/>
<path d="M1049.84 447C1052.69 452.233 1055.31 457.629 1059.38 469.466C1061.52 475.685 1063.23 481.902 1065.31 486.559C1069.17 495.163 1070.04 498.783 1071.47 501.708C1072.89 504.623 1072.68 509.458 1074 518.175C1074.85 523.798 1075.54 530.786 1076.2 535.076C1076.88 539.538 1077.29 543.801 1077.63 547.012C1078.18 551.747 1078.39 558.173 1078.72 559.815C1078.84 560.88 1078.84 562.417 1078.84 564" stroke="white" stroke-width="8" stroke-linecap="round"/>
<path d="M1081.44 563.862C1073.3 571.563 1070.03 574.824 1067.22 578.896C1064.62 582.645 1063.5 584.762 1062.39 586.913C1062.16 587.435 1062.02 587.876 1061.87 588.323C1061.72 588.77 1061.57 589.21 1061.42 590.109" stroke="white" stroke-width="8" stroke-linecap="round"/>
<path d="M901 585.229C901 576.274 901.74 570.694 903.328 565.634C904.796 560.96 907.892 556.304 911.445 551.625C915.299 546.55 918.919 545.635 921.906 544.33C925.54 542.741 928.255 542.273 931.524 541.525C935.693 540.572 939.08 539.292 942.081 537.978C946.285 536.137 951.038 533.689 954.405 531.353C958.538 528.485 961.505 526.214 963.376 523.696C965.467 520.882 968.038 517.451 969.543 514.635C970.865 512.161 971.972 510.525 972.717 509.682C972.975 509.39 973.462 510.133 973.653 510.788C974.519 513.77 974.404 517.227 974.961 519.846C975.318 521.522 975.524 532.272 975.432 547.398C975.383 555.343 974.224 559.812 973.286 563.177C972.444 566.193 964.836 583.5 955.459 587.467C952.698 588.635 948.836 591 946.836 594" stroke="white" stroke-width="8" stroke-linecap="round"/>
<path d="M992.14 561.691C991.186 562.835 989.278 565.507 984.592 570.388C981.854 573.241 978.556 575.275 975.582 577.677C973.325 579.5 970.512 580.837 968.015 582.277C965.714 583.142 963.421 584.285 961.12 585.248C960.542 585.44 959.973 585.63 958.812 585.825" stroke="white" stroke-width="8" stroke-linecap="round"/>
<path d="M994.44 561.691C994.819 562.835 995.968 565.886 996.258 569.532C996.507 572.66 997.313 587.422 996.836 596.154C996.553 601.334 995.784 604.006 995.399 607.835C994.92 612.607 992.532 617.394 991.093 621.344C990.075 624.136 988.51 627.185 986.881 629.487C984.867 631.788 982.959 633.701 981.135 635.618C980.655 636.006 980.086 636.195 979.5 636.965" stroke="white" stroke-width="8" stroke-linecap="round"/>
<path d="M913.183 493.887C912.492 494.401 911.458 496.475 909.984 499.937C908.6 503.188 907.299 506.861 906.514 513.509C904.347 531.871 906.946 534.763 907.463 537.022C907.989 539.32 909.191 541.698 910.062 543.779C910.236 544.302 910.408 544.816 910.753 545.253C911.099 545.69 911.614 546.033 912.144 546.906" stroke="white" stroke-width="8" stroke-linecap="round"/>
<path d="M913.263 493.847C913.263 493.675 913.263 493.504 913.006 493.33C910.33 491.519 901.869 494.18 894.745 497.301C891.647 498.659 888.854 500.937 886.242 503.11C884.116 504.878 881.743 507.351 878.621 511.159C874.415 516.29 869.257 523.985 868.132 526.152C866.918 528.491 865.972 532.458 864.496 538.864C863.898 541.457 862.864 545.401 862.334 551.378C861.107 565.202 862.146 574.577 862.838 576.911C864.034 580.949 864.569 585.134 865.871 587.923C866.305 588.96 866.996 590.004 867.862 591.041C868.212 591.564 868.384 592.078 868.561 592.609" stroke="white" stroke-width="8" stroke-linecap="round"/>
<path d="M886.836 573C887.756 573.766 892.886 579.921 897.26 583.446C899.518 585.265 902.88 587.121 906.675 588.576C909.607 589.699 913.041 589.641 916.554 590.321C921.111 591.202 923.39 591.383 927.448 591.676C930.294 591.882 932.808 593.125 936.958 593.418C940.076 593.639 942.227 594.867 944.537 595.738C947.377 596.809 949.429 598.734 952.568 601.73C955.617 604.641 959.767 608.408 965.302 614.107C967.9 616.782 969.008 619.44 970.487 621.765C971.913 624.006 972.52 626.408 974.271 629.889C976.034 633.394 976.764 637.045 977.784 640.825C978.803 644.025 979.169 646.539 979.723 650.194C979.911 652.891 979.911 657.298 979.357 663" stroke="white" stroke-width="8" stroke-linecap="round"/>
<path d="M886.724 571.917C885.474 572.123 884.224 573.163 881.409 575.51C877.865 578.464 874.199 584.228 872.996 586.008C871.698 587.928 870.127 590.7 868.924 592.378C867.765 593.994 867.408 595.819 866.469 598.222C866.001 599.423 865.841 600.731 865.425 604.514C865.078 607.665 865.008 613.363 864.953 616.757C865.212 622.764 865.525 624.647 865.733 625.428C865.838 625.796 865.942 626.107 866.361 627.053" stroke="white" stroke-width="8" stroke-linecap="round"/>
<path d="M855.112 626.585C853.423 625.679 855.11 626.585 850.842 624.256C848.969 623.235 846.576 650.828 862.33 667.5C872.724 678.5 872.836 679.5 882.33 685.673C892.384 692.209 903.838 694 919.336 694C930.171 694 934.779 692.431 936.959 691.829C940.003 690.987 942.627 689.361 948.17 690.019C950.887 690.342 952.695 690.602 954.252 691.121C955.809 691.64 959.169 691.707 962.233 691.572C966.693 691.376 968.55 691.165 970.905 690.664C973.045 690.21 974.976 690.162 976.801 689.432C978.744 688.655 980.371 688.627 981.852 688.007C983.409 687.356 985.076 686.756 986.517 685.673C988.074 684.503 989.883 683.13 991.116 681.07C992.086 679.449 993.017 677.99 993.901 676.341C994.807 674.652 995.714 672.723 996.167 670.833C996.618 668.953 996.943 667.408 997.073 665.521C997.396 660.86 997.235 653.392 996.941 651.851C996.618 650.162 997.221 647.88 996.031 646.737C995.833 646.547 995.403 646.627 995.124 646.937C994.543 647.585 993.921 648.699 993.182 650.308C992.467 651.865 991.374 653.378 990.395 654.972C989.357 656.662 988.34 659.278 986.766 660.283C985.337 661.194 983.926 663.392 980.913 663.391C974.453 663.387 972.492 663.504 970.956 662.673C969.399 661.832 967.705 661.16 966.682 659.626C966.165 658.85 965.229 655.236 965.974 650.477C966.429 647.573 968.737 644.702 967.327 644.663C965.123 644.603 962.728 644.624 960.849 645.25C959.292 645.769 957.191 645.905 955.34 646.416C953.461 646.935 951.29 647.154 948.92 648.104C945.686 649.4 941.054 650.584 936.092 655.431C933.503 657.96 932.294 661.227 929.687 662.222C929.367 662.345 929.33 661.952 929.433 661.569C929.888 659.88 930.368 658.131 930.859 655.801C931.31 653.661 932.534 651.544 931.633 643.217C931.178 639.013 930.72 635.895 930.142 633.837C929.227 630.577 928.554 626.822 927.744 625.417C926.77 623.728 926.068 620.612 924.307 620.629C923.917 620.633 923.547 620.914 923.141 621.15C921.584 622.056 919.522 623.627 917.374 625.362C915.357 626.993 913.016 629.688 912 631.973C911.22 633.726 910.095 635.403 909.669 637.091C909.277 638.647 906.751 645.168 905.522 649.141C904.876 651.227 905.254 653.889 904.355 658.211C904.223 658.846 903.905 658.476 903.838 658.071C903.71 657.295 902.942 656.194 902.542 654.181C902.155 652.238 901.897 650.524 900.855 649.13C899.69 647.573 898.985 645.164 893.717 640.309C890.345 637.201 887.935 635.311 884.697 633.961C877.268 630.865 875.445 630.687 873.771 630.41C871.818 630.087 869.493 629.859 867.94 629.633C865.723 629.31 862.351 629.115 860.164 628.531C858.22 628.012 856.701 627.437 855.112 626.585Z" stroke="white" stroke-width="8" stroke-linecap="round"/>
<path d="M862.158 573.558C861.448 571.932 858.385 567.228 855.611 564.195C854.065 562.503 852.233 561.272 850.54 559.991C847.528 557.712 842.412 557.173 839.735 556.863C834.135 556.213 827.545 556.552 826.159 556.963C825.4 557.187 824.672 557.373 824.312 557.831C822.578 560.039 828.448 562.999 832.488 568.411C834.936 571.691 836.235 576.4 837.464 580.85C838.306 583.895 837.984 585.641 838.137 588.03C838.773 597.91 837.372 600.587 837.166 602.488C836.941 604.567 836.346 607.544 836.091 612.499C835.931 615.595 836.039 621.379 836.241 625.015C836.519 630 837.673 632.444 838.592 634.743C840.298 639.01 841.975 640.437 842.897 641.772C843.935 643.275 845.761 643.719 847.096 644.233C848.327 644.644 849.249 644.951 849.862 645.155C850.171 645.258 850.475 645.36 850.789 645.464" stroke="white" stroke-width="8" stroke-linecap="round"/>
<path d="M874.413 681.174C873.868 682.087 871.674 683.913 868.563 685.747C860.935 690.246 856.833 693.264 853.252 695.373C845.641 699.857 841.415 702.439 840.862 703.261C840.606 703.642 841.398 704.265 841.951 704.546C844.596 705.887 848.912 705.739 851.85 706.017C857.683 706.569 866.151 706.839 874.38 707.117C880.088 707.31 886.679 707.939 889.713 708.217C892.045 708.431 894.567 709.04 901.248 709.317C905.976 709.514 910.695 710.327 914.463 710.783C917.857 711.058 922.972 711.427 930.106 711.883C934.292 711.977 941.916 711.977 949.771 711.977" stroke="white" stroke-width="8" stroke-linecap="round"/>
<path d="M982.78 689.424C980.228 690.877 976.19 694.551 968.052 700.219C964.232 702.88 961.889 704.639 960.142 706.743C957.851 707.939 955.832 709.221 954.735 710.228C954.182 710.69 953.638 711.053 951.977 711.977" stroke="white" stroke-width="8" stroke-linecap="round"/>
<path d="M840.859 705.926C841.959 710.668 842.323 716.916 842.6 723.685C842.873 725.717 843.241 726.823 843.607 727.92C843.791 728.473 843.973 729.018 844.16 730.679" stroke="white" stroke-width="8" stroke-linecap="round"/>
<path d="M845.258 731.229C845.802 731.229 846.347 731.229 851.892 731.229C857.436 731.229 867.964 731.229 873.932 731.32C883.03 731.458 887.766 732.142 892.456 732.42C896.782 732.676 901.166 733.242 905.839 733.52C910.16 733.777 917.107 734.705 923.71 735.17C926.9 735.395 929.406 736.179 933.251 736.636C937.455 737.135 940.407 737.28 943.611 737.736C946.436 737.83 948.663 738.011 949.852 738.286C950.495 738.38 951.221 738.38 951.969 738.38" stroke="white" stroke-width="8" stroke-linecap="round"/>
<path d="M954.169 715.827C953.619 718.369 953.982 724.98 954.26 728.374C954.719 731.587 955.082 733.974 955.632 735.162C955.819 735.805 955.819 736.532 955.819 737.28" stroke="white" stroke-width="8" stroke-linecap="round"/>
<path d="M989.375 687.774C990.107 689.419 990.838 691.977 991.116 696.193C991.575 698.951 991.757 700.97 992.032 703.52C992.125 705.525 992.125 708.974 992.125 712.527" stroke="white" stroke-width="8" stroke-linecap="round"/>
<path d="M954.172 739.48C955.266 739.117 958.187 737.291 963.685 733.171C967.648 730.201 970.663 728.49 978.801 722.725C982.168 720.34 984.414 718.952 987.074 716.936C987.72 716.383 988.265 715.838 988.817 715.376C989.37 714.914 989.915 714.551 991.576 713.627" stroke="white" stroke-width="8" stroke-linecap="round"/>
<path d="M940.318 451.458C939.212 451.825 936.628 453.67 933.291 456.91C930.648 459.476 930.504 462.928 929.854 468.007C928.381 479.514 932.338 483.667 936.228 488.949C939.116 492.871 940.496 495.904 941.335 500.8C942.607 508.218 939.029 512.019 937.084 514.706C935.139 517.026 933.283 518.694 932.452 519.802C931.988 520.361 931.438 520.911 929.76 522.033" stroke="white" stroke-width="8" stroke-linecap="round"/>
<path d="M963.662 451.458C959.961 456.454 958.85 459.038 958.016 462.189C956.296 468.69 957.727 477.377 959.303 479.883C961.541 483.443 964.585 486.457 965.235 490.519C964.962 499.799 963.851 501.65 963.112 503.036C962.74 503.689 962.373 504.24 961.995 504.806" stroke="white" stroke-width="8" stroke-linecap="round"/>
<path d="M855.733 474.718C854.212 476.24 852.022 479.295 850.711 482.574C849.308 486.079 849.176 494.981 849.937 501.043C850.471 505.301 852.665 508.148 854.851 511.318C857.8 515.593 854.868 523.885 853.77 527.056C853.333 528.475 852.894 529.793 852.458 531.102C852.238 531.761 852.022 532.41 851.143 533.079" stroke="white" stroke-width="8" stroke-linecap="round"/>
<path d="M877.77 692.245C877.256 692.759 876.742 693.273 876.22 693.794C875.698 694.316 875.184 694.83 874.266 695.359" stroke="white" stroke-width="8" stroke-linecap="round"/>
<path d="M846.232 696.527C845.072 694.725 842.993 690.828 842.405 688.748C841.871 686.862 841.949 684.987 841.626 680.979C840.79 670.611 842.463 667.475 843.308 665.707C844.199 663.844 847.127 669.904 849.857 672.963C851.301 674.582 852.843 675.628 854.402 676.28C855.919 676.914 858.029 677.061 860.24 676.609C862.191 675.764 863.359 675.375 864.071 674.987C864.399 674.728 864.655 674.343 865.31 673.946" stroke="white" stroke-width="8" stroke-linecap="round"/>
<path d="M874.275 742.103C874.104 742.103 873.934 742.103 873.591 742.188C873.248 742.273 872.738 742.443 871.964 742.786C871.191 743.129 870.169 743.639 867.57 744.165" stroke="white" stroke-width="8" stroke-linecap="round"/>
<path d="M896.453 745.713L899.032 748.291" stroke="white" stroke-width="8" stroke-linecap="round"/>
</svg>
